<svg width="22" height="21" viewBox="0 0 22 21" fill="none" xmlns="http://www.w3.org/2000/svg">
<path fill-rule="evenodd" clip-rule="evenodd" d="M14.6319 6.87058C12.4848 4.72348 8.99962 4.72348 6.85252 6.87058C4.70541 9.01769 4.70541 12.5028 6.85252 14.6499C8.99962 16.797 12.4848 16.797 14.6319 14.6499C16.779 12.5028 16.779 9.01769 14.6319 6.87058ZM5.79186 5.80992C8.52475 3.07703 12.9597 3.07703 15.6925 5.80992C18.4254 8.54282 18.4254 12.9777 15.6925 15.7105C12.9597 18.4434 8.52475 18.4434 5.79186 15.7105C3.05896 12.9777 3.05896 8.54282 5.79186 5.80992Z" fill="#413752"/>
<path fill-rule="evenodd" clip-rule="evenodd" d="M0.929229 8.7762C1.34003 8.82927 1.63003 9.20531 1.57696 9.61611C1.32707 11.5504 1.6786 13.5735 2.73228 15.3944L2.73272 15.3951C3.80589 17.2547 5.42279 18.5941 7.27168 19.3337C7.65627 19.4875 7.84333 19.924 7.6895 20.3086C7.53566 20.6932 7.09919 20.8802 6.7146 20.7264C4.56349 19.8659 2.68039 18.3054 1.43355 16.1449C0.207577 14.0259 -0.200757 11.6693 0.0893191 9.42393C0.142389 9.01313 0.51843 8.72313 0.929229 8.7762Z" fill="#413752"/>
<path fill-rule="evenodd" clip-rule="evenodd" d="M10.7438 1.5C8.5976 1.5 6.62905 2.22996 5.05592 3.4607C4.72968 3.71593 4.25831 3.65837 4.00308 3.33213C3.74785 3.0059 3.80541 2.53452 4.13165 2.27929C5.95852 0.850033 8.24995 0 10.7438 0C13.1867 0 15.4348 0.829286 17.2383 2.20341C17.5678 2.45445 17.6314 2.92504 17.3804 3.25452C17.1293 3.584 16.6587 3.64759 16.3293 3.39656C14.7728 2.21069 12.8409 1.5 10.7438 1.5Z" fill="#413752"/>
<path fill-rule="evenodd" clip-rule="evenodd" d="M20.5563 8.7762C20.9671 8.72313 21.3431 9.01313 21.3962 9.42393C21.6863 11.6695 21.2779 14.0262 20.0518 16.1453C18.8049 18.3056 16.9219 19.866 14.7709 20.7264C14.3863 20.8802 13.9499 20.6932 13.796 20.3086C13.6422 19.924 13.8293 19.4875 14.2138 19.3337C16.0627 18.5941 17.6796 17.2547 18.7528 15.3951L18.7532 15.3944C19.8069 13.5735 20.1585 11.5504 19.9086 9.61611C19.8555 9.20531 20.1455 8.82927 20.5563 8.7762Z" fill="#413752"/>
</svg>
