<svg width="100" height="100" viewBox="0 0 100 100" fill="none" xmlns="http://www.w3.org/2000/svg">
<path d="M91.4165 20.3333C90.6665 18.125 88.5415 16.6666 86.1665 16.6666C86.0415 16.6666 85.9165 16.6666 85.7915 16.6666H81.6665L80.3748 12.625C79.7915 10.125 77.5415 8.33331 74.9998 8.33331C72.4582 8.33331 70.2082 10.125 69.6248 12.6666L68.3332 16.6666H64.2498C64.1248 16.6666 63.9998 16.6666 63.8748 16.6666C61.4998 16.6666 59.3748 18.125 58.6248 20.3333C57.8332 22.6666 58.7915 25.2083 60.9582 26.5L64.5832 28.6666L62.9165 33.8333C61.9582 36.25 62.7498 39.0416 64.7915 40.5833C65.7498 41.2916 66.9165 41.6666 68.0415 41.6666C69.3332 41.6666 70.5832 41.2083 71.6248 40.3333L74.9998 37.4166L78.3748 40.3333C79.4165 41.2083 80.6665 41.6666 81.9582 41.6666C83.0832 41.6666 84.2498 41.2916 85.2082 40.5833C87.2915 39.0416 88.0415 36.25 87.0832 33.8333L85.4582 28.6666L89.0832 26.5C91.2082 25.2083 92.1665 22.6666 91.4165 20.3333ZM74.9998 29.1666C72.7082 29.1666 70.8332 27.2916 70.8332 25C70.8332 22.7083 72.7082 20.8333 74.9998 20.8333C77.2915 20.8333 79.1665 22.7083 79.1665 25C79.1665 27.2916 77.2915 29.1666 74.9998 29.1666Z" fill="#B2B7BF"/>
<path d="M56.2084 43.7916C54.4168 42 52.2918 40.75 50.0001 39.9166V33.3333H45.8334V39.0833C45.3751 39.0416 44.8751 38.9583 44.4168 38.9583C40.1668 38.9583 35.8751 40.5833 32.6251 43.8333C31.9584 44.5 31.3751 45.25 30.8334 46.0416L25.0001 43.8333C18.5001 41.5416 11.3334 44.9583 9.04176 51.4166C7.91676 54.5416 8.08343 57.9583 9.54176 60.9583C10.5001 62.9583 11.9584 64.5833 13.7084 65.7916C12.1251 71.4166 13.4584 77.6667 17.8751 82.0833C22.2918 86.5 28.5834 87.8333 34.1668 86.25C35.3751 88 37.0001 89.4583 39.0001 90.4167C40.7501 91.25 42.5418 91.6667 44.3751 91.6667C45.7918 91.6667 47.2084 91.4167 48.5834 90.9583C55.0834 88.6667 58.5001 81.5 56.1668 74.9166L54.0001 69.2083C54.7501 68.6667 55.5001 68.0833 56.2084 67.4167C59.8334 63.7916 61.3751 58.9166 60.9584 54.2083H66.6668V50.0416H60.0418C59.2501 47.75 58.0001 45.625 56.2084 43.7916ZM19.4584 59.5416C18.4168 59.1666 17.5834 58.4166 17.0834 57.4166C16.5834 56.4166 16.5418 55.2916 16.9168 54.25C17.7084 52.0833 20.0834 50.9583 22.1668 51.7083L35.3334 56.6666C30.5418 59.1666 24.3751 61.2916 19.4584 59.5416ZM45.7918 83.0833C44.7501 83.4583 43.6251 83.4166 42.6251 82.9166C41.6251 82.4583 40.8751 81.5833 40.5001 80.5416C38.7501 75.625 40.8751 69.5 43.4168 64.7083L48.3334 77.75C49.0834 79.9166 47.9584 82.3333 45.7918 83.0833ZM50.8334 60.8333L48.2918 54.125C48.2918 54.0833 48.2501 54.0416 48.2084 54C48.1251 53.8333 48.0418 53.6666 47.9584 53.5C47.8751 53.3333 47.7918 53.2083 47.6668 53.0416C47.5418 52.9166 47.4168 52.7916 47.2918 52.6666C47.1668 52.5416 47.0418 52.4166 46.9168 52.2916C46.7918 52.1666 46.6251 52.0833 46.4584 52C46.2918 51.9166 46.1668 51.7916 45.9584 51.75C45.9168 51.75 45.8751 51.7083 45.8334 51.6666L39.1668 49.1666C40.6668 47.9583 42.4584 47.25 44.4168 47.25C46.6251 47.25 48.7501 48.125 50.2918 49.7083C53.3334 52.75 53.5001 57.5416 50.8334 60.8333Z" fill="#B2B7BF"/>
</svg>
