<svg width="26" height="26" viewBox="0 0 26 26" fill="none" xmlns="http://www.w3.org/2000/svg">
<mask id="path-1-inside-1_303_504" fill="white">
<path d="M6.02386 13L12.7627 19.7372C12.9153 19.8898 13.001 20.0967 13.001 20.3125C13.001 20.5282 12.9153 20.7352 12.7627 20.8877C12.6102 21.0403 12.4032 21.126 12.1875 21.126C11.9717 21.126 11.7648 21.0403 11.6122 20.8877L4.29974 13.5752C4.22407 13.4998 4.16404 13.4101 4.12308 13.3114C4.08212 13.2127 4.06104 13.1069 4.06104 13C4.06104 12.8931 4.08212 12.7873 4.12308 12.6886C4.16404 12.5899 4.22407 12.5002 4.29974 12.4247L11.6122 5.11224C11.7648 4.95967 11.9717 4.87396 12.1875 4.87396C12.4032 4.87396 12.6102 4.95967 12.7627 5.11224C12.9153 5.2648 13.001 5.47173 13.001 5.68749C13.001 5.90325 12.9153 6.11017 12.7627 6.26274L6.02386 13Z"/>
</mask>
<path d="M6.02386 13L12.7627 19.7372C12.9153 19.8898 13.001 20.0967 13.001 20.3125C13.001 20.5282 12.9153 20.7352 12.7627 20.8877C12.6102 21.0403 12.4032 21.126 12.1875 21.126C11.9717 21.126 11.7648 21.0403 11.6122 20.8877L4.29974 13.5752C4.22407 13.4998 4.16404 13.4101 4.12308 13.3114C4.08212 13.2127 4.06104 13.1069 4.06104 13C4.06104 12.8931 4.08212 12.7873 4.12308 12.6886C4.16404 12.5899 4.22407 12.5002 4.29974 12.4247L11.6122 5.11224C11.7648 4.95967 11.9717 4.87396 12.1875 4.87396C12.4032 4.87396 12.6102 4.95967 12.7627 5.11224C12.9153 5.2648 13.001 5.47173 13.001 5.68749C13.001 5.90325 12.9153 6.11017 12.7627 6.26274L6.02386 13Z" fill="white"/>
<path d="M6.02386 13L2.48876 9.46403L-1.04806 13L2.48876 16.5359L6.02386 13ZM12.7627 19.7372L16.2983 16.2017L16.2978 16.2013L12.7627 19.7372ZM11.6122 20.8877L8.0767 24.4233L8.0767 24.4233L11.6122 20.8877ZM4.29974 13.5752L7.83527 10.0397L7.8308 10.0352L4.29974 13.5752ZM4.06104 13L9.06104 13L4.06104 13ZM4.29974 12.4247L7.8308 15.9647L7.83527 15.9603L4.29974 12.4247ZM12.1875 4.87396L12.1875 -0.126038L12.1875 4.87396ZM13.001 5.68749L18.001 5.68749L13.001 5.68749ZM12.7627 6.26274L16.2978 9.7987L16.2983 9.79827L12.7627 6.26274ZM2.48876 16.5359L9.22763 23.2732L16.2978 16.2013L9.55897 9.46403L2.48876 16.5359ZM9.2272 23.2728C8.44208 22.4876 8.00101 21.4228 8.00101 20.3125H18.001C18.001 18.7707 17.3885 17.292 16.2983 16.2017L9.2272 23.2728ZM8.00101 20.3125C8.00101 19.2022 8.44208 18.1373 9.2272 17.3522L16.2983 24.4233C17.3885 23.333 18.001 21.8543 18.001 20.3125H8.00101ZM9.2272 17.3522C10.0123 16.5671 11.0772 16.126 12.1875 16.126V26.126C13.7293 26.126 15.208 25.5135 16.2983 24.4233L9.2272 17.3522ZM12.1875 16.126C13.2978 16.126 14.3626 16.5671 15.1478 17.3522L8.0767 24.4233C9.16696 25.5135 10.6457 26.126 12.1875 26.126V16.126ZM15.1478 17.3522L7.83527 10.0397L0.764204 17.1108L8.0767 24.4233L15.1478 17.3522ZM7.8308 10.0352C8.22078 10.4242 8.53017 10.8863 8.74127 11.3951L-0.495108 15.2277C-0.20209 15.9339 0.227365 16.5753 0.768675 17.1152L7.8308 10.0352ZM8.74127 11.3951C8.95237 11.9038 9.06104 12.4492 9.06104 13H-0.938965C-0.938965 13.7645 -0.78813 14.5216 -0.495108 15.2277L8.74127 11.3951ZM9.06104 13C9.06104 13.5508 8.95237 14.0962 8.74127 14.6049L-0.495108 10.7722C-0.78813 11.4784 -0.938965 12.2354 -0.938965 13L9.06104 13ZM8.74127 14.6049C8.53017 15.1136 8.22078 15.5757 7.8308 15.9647L0.768675 8.88474C0.227365 9.42468 -0.20209 10.0661 -0.495108 10.7722L8.74127 14.6049ZM7.83527 15.9603L15.1478 8.64777L8.0767 1.5767L0.764204 8.8892L7.83527 15.9603ZM15.1478 8.64777C14.3627 9.43289 13.2978 9.87396 12.1875 9.87396L12.1875 -0.126038C10.6456 -0.126038 9.16695 0.486454 8.0767 1.5767L15.1478 8.64777ZM12.1875 9.87396C11.0772 9.87396 10.0123 9.43289 9.2272 8.64777L16.2983 1.5767C15.208 0.486454 13.7293 -0.126038 12.1875 -0.126038L12.1875 9.87396ZM9.2272 8.64777C8.44208 7.86265 8.00101 6.7978 8.00101 5.68749L18.001 5.68749C18.001 4.14566 17.3885 2.66696 16.2983 1.5767L9.2272 8.64777ZM8.00101 5.68749C8.00101 4.57718 8.44208 3.51233 9.2272 2.7272L16.2983 9.79827C17.3885 8.70802 18.001 7.22932 18.001 5.68749L8.00101 5.68749ZM9.22763 2.72678L2.48876 9.46403L9.55897 16.5359L16.2978 9.7987L9.22763 2.72678Z" fill="#6891C0" mask="url(#path-1-inside-1_303_504)"/>
</svg>
