<svg width="24" height="24" viewBox="0 0 24 24" fill="none" xmlns="http://www.w3.org/2000/svg">
<g clip-path="url(#clip0_421_740)">
<path d="M17.5 10.9997C18.3284 10.9997 19 10.3281 19 9.49966C19 8.67124 18.3284 7.99966 17.5 7.99966C16.6716 7.99966 16 8.67124 16 9.49966C16 10.3281 16.6716 10.9997 17.5 10.9997Z" fill="#413752"/>
<path d="M12.5 7.99966C13.3284 7.99966 14 7.32809 14 6.49966C14 5.67124 13.3284 4.99966 12.5 4.99966C11.6716 4.99966 11 5.67124 11 6.49966C11 7.32809 11.6716 7.99966 12.5 7.99966Z" fill="#413752"/>
<path d="M7.5 10.9997C8.32843 10.9997 9 10.3281 9 9.49966C9 8.67124 8.32843 7.99966 7.5 7.99966C6.67157 7.99966 6 8.67124 6 9.49966C6 10.3281 6.67157 10.9997 7.5 10.9997Z" fill="#413752"/>
<path d="M7.5 16.9997C8.32843 16.9997 9 16.3281 9 15.4997C9 14.6713 8.32843 13.9997 7.5 13.9997C6.67157 13.9997 6 14.6713 6 15.4997C6 16.3281 6.67157 16.9997 7.5 16.9997Z" fill="#413752"/>
<path d="M12.0829 23.9999C9.69216 23.9997 7.35597 23.2853 5.37392 21.9485C3.39187 20.6117 1.85431 18.7133 0.958409 16.4967C0.062511 14.2802 -0.150886 11.8466 0.345584 9.50793C0.842054 7.1693 2.02576 5.03227 3.7449 3.37088C4.89971 2.2456 6.27142 1.36706 7.77654 0.78874C9.28165 0.210416 10.8887 -0.0555994 12.4999 0.00688261C15.5447 0.148995 18.4249 1.42987 20.5697 3.59561C22.7145 5.76136 23.9674 8.6539 24.0799 11.6999C24.1206 13.2532 23.8574 14.7995 23.3049 16.2519C23.1925 16.5478 23.0074 16.8106 22.7668 17.0163C22.5262 17.222 22.2377 17.3639 21.9279 17.4289C21.613 17.4982 21.2857 17.4868 20.9764 17.3958C20.6672 17.3047 20.3859 17.1368 20.1589 16.9079L20.0589 16.8079C19.5582 16.3072 18.9198 15.9669 18.225 15.8303C17.5303 15.6937 16.8105 15.7669 16.1575 16.0407C15.5045 16.3145 14.9478 16.7764 14.5582 17.3677C14.1686 17.959 13.9638 18.6528 13.9699 19.3609L14.0099 23.8769L13.0859 23.9539C12.7529 23.9779 12.4209 23.9999 12.0829 23.9999ZM12.0829 1.99988C9.43074 1.98795 6.88246 3.03007 4.99866 4.897C3.11485 6.76392 2.04984 9.30272 2.0379 11.9549C2.02597 14.607 3.06809 17.1553 4.93502 19.0391C6.80194 20.9229 9.34074 21.9879 11.9929 21.9999L11.9689 19.3749C11.9644 18.6359 12.1062 17.9033 12.3861 17.2194C12.666 16.5354 13.0785 15.9136 13.5999 15.3899C14.6443 14.3469 16.0599 13.7611 17.5359 13.7611C19.0119 13.7611 20.4275 14.3469 21.4719 15.3899L21.4859 15.4039C21.9125 14.2339 22.1144 12.9938 22.0809 11.7489C21.9874 9.21142 20.9441 6.80167 19.1577 4.99715C17.3714 3.19262 14.9723 2.12502 12.4359 2.00588C12.3169 1.99988 12.1999 1.99988 12.0819 1.99988H12.0829Z" fill="#413752"/>
</g>
<defs>
<clipPath id="clip0_421_740">
<rect width="24" height="24" fill="white"/>
</clipPath>
</defs>
</svg>
