<svg width="27" height="27" viewBox="0 0 27 27" fill="none" xmlns="http://www.w3.org/2000/svg">
<path d="M13.5 9.00067C12.61 9.00067 11.74 9.26459 10.9999 9.75906C10.2599 10.2535 9.68314 10.9563 9.34254 11.7786C9.00195 12.6009 8.91283 13.5057 9.08647 14.3786C9.2601 15.2515 9.68869 16.0533 10.318 16.6827C10.9474 17.312 11.7492 17.7406 12.6221 17.9142C13.495 18.0878 14.3998 17.9987 15.2221 17.6581C16.0443 17.3175 16.7471 16.7408 17.2416 16.0007C17.7361 15.2607 18 14.3907 18 13.5007C18 12.3072 17.5259 11.1626 16.682 10.3187C15.8381 9.47478 14.6935 9.00067 13.5 9.00067ZM13.5 15.7507C13.055 15.7507 12.62 15.6187 12.25 15.3715C11.88 15.1242 11.5916 14.7728 11.4213 14.3617C11.251 13.9506 11.2064 13.4982 11.2932 13.0617C11.3801 12.6253 11.5943 12.2243 11.909 11.9097C12.2237 11.595 12.6246 11.3807 13.061 11.2939C13.4975 11.2071 13.9499 11.2516 14.361 11.4219C14.7722 11.5922 15.1236 11.8806 15.3708 12.2506C15.618 12.6206 15.75 13.0557 15.75 13.5007C15.75 14.0974 15.5129 14.6697 15.091 15.0917C14.669 15.5136 14.0967 15.7507 13.5 15.7507Z" fill="#B2B7BF"/>
<path d="M23.956 15.6375L23.4565 15.3495C23.6814 14.126 23.6814 12.8718 23.4565 11.6483L23.956 11.3602C24.3401 11.1386 24.6768 10.8436 24.9469 10.4918C25.217 10.1401 25.4151 9.73861 25.53 9.3103C25.645 8.88198 25.6744 8.43524 25.6166 7.99555C25.5589 7.55587 25.4151 7.13187 25.1935 6.74775C24.9719 6.36363 24.6768 6.02693 24.3251 5.75685C23.9733 5.48678 23.5719 5.28863 23.1436 5.17372C22.7152 5.05881 22.2685 5.02938 21.8288 5.08712C21.3891 5.14487 20.9651 5.28864 20.581 5.51025L20.0804 5.79938C19.1349 4.99153 18.0483 4.36528 16.8753 3.95213V3.375C16.8753 2.47989 16.5197 1.62145 15.8867 0.988515C15.2538 0.355579 14.3954 0 13.5003 0C12.6052 0 11.7467 0.355579 11.1138 0.988515C10.4808 1.62145 10.1253 2.47989 10.1253 3.375V3.95213C8.95232 4.36676 7.86609 4.99455 6.92126 5.80387L6.41839 5.5125C5.64263 5.06495 4.72085 4.94389 3.85584 5.17597C2.99083 5.40805 2.25344 5.97424 1.80589 6.75C1.35833 7.52576 1.23728 8.44753 1.46936 9.31254C1.70143 10.1776 2.26763 10.9149 3.04339 11.3625L3.54289 11.6505C3.31801 12.874 3.31801 14.1282 3.54289 15.3517L3.04339 15.6398C2.26763 16.0873 1.70143 16.8247 1.46936 17.6897C1.23728 18.5547 1.35833 19.4765 1.80589 20.2523C2.25344 21.028 2.99083 21.5942 3.85584 21.8263C4.72085 22.0584 5.64263 21.9373 6.41839 21.4897L6.91901 21.2006C7.86487 22.0086 8.95186 22.6348 10.1253 23.0479V23.625C10.1253 24.5201 10.4808 25.3786 11.1138 26.0115C11.7467 26.6444 12.6052 27 13.5003 27C14.3954 27 15.2538 26.6444 15.8867 26.0115C16.5197 25.3786 16.8753 24.5201 16.8753 23.625V23.0479C18.0482 22.6332 19.1344 22.0054 20.0793 21.1961L20.5821 21.4864C21.3579 21.9339 22.2797 22.055 23.1447 21.8229C24.0097 21.5908 24.7471 21.0246 25.1946 20.2489C25.6422 19.4731 25.7632 18.5513 25.5312 17.6863C25.2991 16.8213 24.7329 16.0839 23.9571 15.6364L23.956 15.6375ZM21.0895 11.3895C21.4705 12.7699 21.4705 14.2278 21.0895 15.6082C21.023 15.8485 21.0382 16.1041 21.1326 16.3348C21.2271 16.5655 21.3956 16.7583 21.6115 16.8829L22.831 17.5871C23.0896 17.7363 23.2782 17.9821 23.3556 18.2704C23.4329 18.5587 23.3925 18.8659 23.2433 19.1244C23.0941 19.383 22.8484 19.5717 22.5601 19.649C22.2718 19.7263 21.9646 19.6859 21.706 19.5367L20.4843 18.8303C20.2681 18.7051 20.0165 18.6554 19.769 18.689C19.5216 18.7226 19.2923 18.8376 19.1174 19.0159C18.116 20.0381 16.8545 20.7675 15.469 21.1252C15.2272 21.1874 15.0129 21.3283 14.8599 21.5257C14.707 21.723 14.624 21.9657 14.6241 22.2154V23.625C14.6241 23.9234 14.5056 24.2095 14.2946 24.4205C14.0837 24.6315 13.7975 24.75 13.4991 24.75C13.2008 24.75 12.9146 24.6315 12.7036 24.4205C12.4927 24.2095 12.3741 23.9234 12.3741 23.625V22.2165C12.3743 21.9668 12.2913 21.7241 12.1383 21.5268C11.9854 21.3294 11.7711 21.1886 11.5293 21.1264C10.1437 20.7671 8.88251 20.0362 7.88201 19.0125C7.7071 18.8342 7.47784 18.7192 7.23036 18.6856C6.98288 18.652 6.73126 18.7017 6.51514 18.8269L5.29564 19.5322C5.16764 19.6073 5.02608 19.6563 4.87908 19.6764C4.73208 19.6965 4.58256 19.6873 4.43912 19.6494C4.29569 19.6114 4.16117 19.5455 4.04331 19.4554C3.92545 19.3653 3.82659 19.2527 3.7524 19.1242C3.67822 18.9958 3.63018 18.8539 3.61106 18.7067C3.59194 18.5596 3.6021 18.4102 3.64098 18.267C3.67985 18.1238 3.74666 17.9897 3.83756 17.8725C3.92846 17.7552 4.04166 17.6571 4.17064 17.5837L5.39014 16.8795C5.60608 16.7549 5.77452 16.5621 5.869 16.3314C5.96349 16.1007 5.97866 15.8451 5.91214 15.6049C5.53116 14.2244 5.53116 12.7666 5.91214 11.3861C5.97746 11.1464 5.96156 10.8917 5.86693 10.662C5.77229 10.4322 5.60424 10.2402 5.38901 10.116L4.16951 9.41175C3.91098 9.26257 3.72229 9.01679 3.64497 8.72849C3.56764 8.44018 3.60802 8.13297 3.7572 7.87444C3.90638 7.6159 4.15216 7.42722 4.44046 7.34989C4.72876 7.27257 5.03598 7.31294 5.29451 7.46212L6.51626 8.16862C6.73179 8.29408 6.98289 8.34436 7.23011 8.31158C7.47732 8.27879 7.70664 8.16479 7.88201 7.9875C8.88336 6.96526 10.1449 6.2359 11.5304 5.87812C11.773 5.81576 11.9878 5.67422 12.1409 5.47594C12.2939 5.27766 12.3764 5.03397 12.3753 4.7835V3.375C12.3753 3.07663 12.4938 2.79048 12.7048 2.5795C12.9157 2.36853 13.2019 2.25 13.5003 2.25C13.7986 2.25 14.0848 2.36853 14.2958 2.5795C14.5067 2.79048 14.6253 3.07663 14.6253 3.375V4.7835C14.6251 5.0332 14.7081 5.27585 14.8611 5.47322C15.014 5.67058 15.2283 5.81145 15.4701 5.87363C16.8561 6.23267 18.1177 6.96362 19.1185 7.9875C19.2934 8.16578 19.5227 8.28078 19.7702 8.31439C20.0176 8.348 20.2693 8.2983 20.4854 8.17313L21.7049 7.46775C21.8329 7.39271 21.9744 7.34374 22.1214 7.32364C22.2684 7.30354 22.418 7.31272 22.5614 7.35064C22.7048 7.38856 22.8394 7.45448 22.9572 7.5446C23.0751 7.63473 23.1739 7.74727 23.2481 7.87576C23.3223 8.00424 23.3703 8.14614 23.3895 8.29326C23.4086 8.44039 23.3984 8.58985 23.3595 8.73303C23.3207 8.87621 23.2539 9.01029 23.163 9.12755C23.0721 9.2448 22.9589 9.34292 22.8299 9.41625L21.6104 10.1205C21.3956 10.245 21.228 10.4372 21.1338 10.6669C21.0396 10.8967 21.024 11.1511 21.0895 11.3906V11.3895Z" fill="#B2B7BF"/>
</svg>
