<svg width="80" height="48" viewBox="0 0 80 48" fill="none" xmlns="http://www.w3.org/2000/svg">
<path fill-rule="evenodd" clip-rule="evenodd" d="M40.1909 0H40.1156H29.5355C21.7678 0 11.264 3.5 4.29067 16.7326C-3.52663 31.5668 1.35227 41.578 3.29417 44.113C4.45927 45.634 9.61737 50.697 16.8877 46.141C23.9157 41.737 25.4424 40.369 27.7949 38.26L28.0538 38.029C31.4522 34.9863 35.5303 32.451 40.1909 32.451C44.8515 32.451 48.8543 34.9863 52.2527 38.029L52.5115 38.26C54.8641 40.369 56.3908 41.737 63.4188 46.141C70.6891 50.697 75.8471 45.634 77.0123 44.113C78.9542 41.578 83.1029 31.944 76.0413 16.7326C69.4342 2.5 58.5387 0 50.771 0H40.1909ZM61 12C61 14.2091 59.2091 16 57 16C54.7909 16 53 14.2091 53 12C53 9.7909 54.7909 8 57 8C59.2091 8 61 9.7909 61 12ZM50 23C52.2091 23 54 21.2091 54 19C54 16.7909 52.2091 15 50 15C47.7909 15 46 16.7909 46 19C46 21.2091 47.7909 23 50 23ZM68 19C68 21.2091 66.2091 23 64 23C61.7909 23 60 21.2091 60 19C60 16.7909 61.7909 15 64 15C66.2091 15 68 16.7909 68 19ZM57 30C59.2091 30 61 28.2091 61 26C61 23.7909 59.2091 22 57 22C54.7909 22 53 23.7909 53 26C53 28.2091 54.7909 30 57 30Z" fill="#FFCD4D"/>
</svg>
