<svg width="28" height="26" viewBox="0 0 28 26" fill="none" xmlns="http://www.w3.org/2000/svg">
<path d="M25.661 8.67271L17.9977 8.00771L15.0052 0.961875C14.4668 -0.320625 12.6302 -0.320625 12.0918 0.961875L9.09935 8.02354L1.45185 8.67271C0.058516 8.78354 -0.511484 10.5252 0.549349 11.4435L6.36018 16.4785L4.61852 23.9519C4.30185 25.3135 5.77435 26.3902 6.97768 25.6619L13.5485 21.7035L20.1193 25.6777C21.3227 26.406 22.7952 25.3294 22.4785 23.9677L20.7369 16.4785L26.5477 11.4435C27.6085 10.5252 27.0543 8.78354 25.661 8.67271ZM13.5485 18.7427L7.59518 22.3369L9.17852 15.5602L3.92185 11.0002L10.8568 10.3985L13.5485 4.01771L16.256 10.4144L23.191 11.016L17.9344 15.576L19.5177 22.3527L13.5485 18.7427Z" fill="#B67BAD"/>
<path d="M10.5 10L13.5 2.5L16 9L24 11L19 14.5L20.5 23L13.5 20L7.5 23V16L2 11L10.5 10Z" fill="#B67BAD" stroke="#B67BAD"/>
</svg>
