<svg width="29" height="29" viewBox="0 0 29 29" fill="none" xmlns="http://www.w3.org/2000/svg">
<path d="M25.5151 14.4693L14.9897 2.77444C14.5465 2.28092 13.6951 2.28092 13.2518 2.77444L2.72647 14.4693C2.57497 14.6372 2.47553 14.8456 2.44023 15.069C2.40494 15.2924 2.43531 15.5212 2.52766 15.7277C2.71478 16.1498 3.13345 16.4212 3.5954 16.4212H5.93437V24.6076C5.93437 24.9177 6.05758 25.2152 6.2769 25.4345C6.49623 25.6538 6.79369 25.777 7.10385 25.777H10.6123C10.9225 25.777 11.2199 25.6538 11.4393 25.4345C11.6586 25.2152 11.7818 24.9177 11.7818 24.6076V19.9296H16.4597V24.6076C16.4597 24.9177 16.5829 25.2152 16.8023 25.4345C17.0216 25.6538 17.3191 25.777 17.6292 25.777H21.1377C21.4478 25.777 21.7453 25.6538 21.9646 25.4345C22.1839 25.2152 22.3072 24.9177 22.3072 24.6076V16.4212H24.6461C24.8726 16.4221 25.0945 16.3572 25.2847 16.2342C25.4749 16.1113 25.6252 15.9356 25.7174 15.7287C25.8095 15.5218 25.8394 15.2925 25.8035 15.0689C25.7676 14.8453 25.6673 14.6369 25.5151 14.4693Z" fill="#FAA9ED"/>
</svg>
