<svg width="29" height="29" viewBox="0 0 29 29" fill="none" xmlns="http://www.w3.org/2000/svg">
<path d="M25.5149 14.4693L14.9895 2.77441C14.5463 2.28089 13.6949 2.28089 13.2517 2.77441L2.72632 14.4693C2.57482 14.6372 2.47538 14.8455 2.44008 15.0689C2.40479 15.2923 2.43516 15.5212 2.52751 15.7276C2.71463 16.1498 3.1333 16.4211 3.59525 16.4211H5.93422V24.6075C5.93422 24.9177 6.05743 25.2152 6.27675 25.4345C6.49607 25.6538 6.79354 25.777 7.1037 25.777H10.6122C10.9223 25.777 11.2198 25.6538 11.4391 25.4345C11.6584 25.2152 11.7816 24.9177 11.7816 24.6075V19.9296H16.4596V24.6075C16.4596 24.9177 16.5828 25.2152 16.8021 25.4345C17.0214 25.6538 17.3189 25.777 17.6291 25.777H21.1375C21.4477 25.777 21.7452 25.6538 21.9645 25.4345C22.1838 25.2152 22.307 24.9177 22.307 24.6075V16.4211H24.646C24.8725 16.4221 25.0943 16.3571 25.2846 16.2342C25.4748 16.1112 25.6251 15.9356 25.7172 15.7287C25.8093 15.5218 25.8392 15.2925 25.8033 15.0689C25.7674 14.8453 25.6672 14.6369 25.5149 14.4693Z" fill="#B2B7BF"/>
</svg>
