<svg width="22" height="22" viewBox="0 0 22 22" fill="none" xmlns="http://www.w3.org/2000/svg">
<path fill-rule="evenodd" clip-rule="evenodd" d="M1.84467 1.84467C3.17914 0.510201 5.17603 0 7.75 0H13.75C16.324 0 18.3209 0.510201 19.6553 1.84467C20.9898 3.17914 21.5 5.17603 21.5 7.75V13.75C21.5 16.324 20.9898 18.3209 19.6553 19.6553C18.3209 20.9898 16.324 21.5 13.75 21.5H7.75C5.17603 21.5 3.17914 20.9898 1.84467 19.6553C0.510201 18.3209 0 16.324 0 13.75V7.75C0 5.17603 0.510201 3.17914 1.84467 1.84467ZM2.90533 2.90533C1.9898 3.82086 1.5 5.32397 1.5 7.75V13.75C1.5 16.176 1.9898 17.6791 2.90533 18.5947C3.82086 19.5102 5.32397 20 7.75 20H13.75C16.176 20 17.6791 19.5102 18.5947 18.5947C19.5102 17.6791 20 16.176 20 13.75V7.75C20 5.32397 19.5102 3.82086 18.5947 2.90533C17.6791 1.9898 16.176 1.5 13.75 1.5H7.75C5.32397 1.5 3.82086 1.9898 2.90533 2.90533Z" fill="#413752"/>
<path fill-rule="evenodd" clip-rule="evenodd" d="M10.75 8C9.23122 8 8 9.23122 8 10.75C8 12.2688 9.23122 13.5 10.75 13.5C12.2688 13.5 13.5 12.2688 13.5 10.75C13.5 9.23122 12.2688 8 10.75 8ZM6.5 10.75C6.5 8.40279 8.40279 6.5 10.75 6.5C13.0972 6.5 15 8.40279 15 10.75C15 13.0972 13.0972 15 10.75 15C8.40279 15 6.5 13.0972 6.5 10.75Z" fill="#413752"/>
<path fill-rule="evenodd" clip-rule="evenodd" d="M15.3862 5.75C15.3862 5.19772 15.8339 4.75 16.3862 4.75H16.3978C16.9501 4.75 17.3978 5.19772 17.3978 5.75C17.3978 6.30228 16.9501 6.75 16.3978 6.75H16.3862C15.8339 6.75 15.3862 6.30228 15.3862 5.75Z" fill="#413752"/>
</svg>
