<svg width="59" height="85" viewBox="0 0 59 85" fill="none" xmlns="http://www.w3.org/2000/svg">
<path d="M37.9083 59.5588C42.1568 65.9398 46.4527 69.5258 56.063 75.9303C56.5991 74.213 56.3693 73.588 53.6791 73.9256C54.3717 71.8846 53.7095 71.6361 51.4785 72.088C52.1401 69.4686 51.329 69.4601 49.0945 70.4174C49.3594 68.5552 48.7655 68.31 46.894 68.7469C47.4294 66.7572 46.8427 66.5895 45.0602 67.0763C46.0885 65.4596 45.1342 65.4999 43.459 65.5708L43.4098 65.5728C44.2013 63.8893 43.8293 63.562 41.9427 63.9023C42.8133 61.5799 42.087 61.3097 39.9255 61.5635C40.8066 59.542 39.7531 59.2584 37.9083 59.5588Z" fill="#C5AB67"/>
<path d="M24.7049 69.7491C25.1328 73.1459 25.1083 80.625 25.255 80.8922C19.3868 86.9062 31.8209 85.7993 37.9083 80.057C57.7186 81.3165 62.4779 79.1357 55.8795 75.7631C45.434 68.1738 42.1769 65.3851 40.6986 63.0669C40.6986 63.0669 41.1264 53.6616 41.2488 51.7071C41.2905 51.0415 41.1847 50.6178 41.0604 50.3678C41.062 50.3688 41.0637 50.3697 41.0654 50.3707C42.1333 49.9121 42.7076 49.6341 43.3564 48.8176C46.3894 42.6074 47.1794 37.6753 45.3736 23.7593C52.7088 8.89139 48.0771 0.602456 41.1559 8.55728C39.7491 6.84373 35.3225 5.23909 34.7375 5.38324C37.1215 2.37622 30.3372 -5.16801 27.7691 5.97839C21.426 5.21465 16.0332 7.89406 16.9496 12.7336C23.6983 18.9432 29.8749 20.7351 40.7891 19.5829L16.5829 44.9754L15.7589 48.199C14.0639 47.5151 11.0553 51.3709 6.22313 62.7328C5.68614 64.5244 8.97626 63.3883 10.5423 63.4811C10.317 68.4476 10.4637 72.333 10.8981 78.0523C6.48188 82.715 7.97923 83.9048 20.2505 79.7229L21.2207 69.5325C22.1868 69.964 23.3629 69.973 24.7049 69.7491Z" fill="#6CC2B2"/>
<path d="M39.5747 71.9899C41.5182 73.3946 41.4612 69.8774 40.8847 63.3556C39.337 63.4335 38.325 64.3212 36.667 63.7832C34.7328 64.1457 34.0488 63.3802 32.9993 63.3556C32.4466 67.5166 30.6368 71.8275 32.9206 70.0975C33.6116 72.9844 34.0945 74.0661 35.546 72.6857C36.8289 74.1059 37.3474 74.2099 37.859 72.9706C38.894 73.5601 39.3174 73.4726 39.5747 71.9899Z" fill="#F09E88"/>
<path d="M10.1122 70.264C11.4315 71.7878 9.73113 68.6145 10.6245 63.067L8.75315 62.837L6.32795 62.2145C4.99305 65.5874 2.71955 68.5122 4.98131 67.4813C4.94793 70.0158 5.12162 71.0059 6.61818 70.1162C7.38531 71.5336 7.79431 71.7141 8.48017 70.7723C9.21614 71.4514 9.58638 71.455 10.1122 70.264Z" fill="#F09E88"/>
<path d="M45.2437 39.5121C44.6709 40.4444 44.3494 40.4665 43.7766 39.5121" stroke="#413752" stroke-width="0.162931"/>
<path d="M18.8369 54.5471C18.2641 55.4794 17.9426 55.5015 17.3699 54.5471" stroke="#413752" stroke-width="0.162931"/>
<path d="M44.3267 40.1803C43.7539 41.1126 43.4324 41.1347 42.8596 40.1803" stroke="#413752" stroke-width="0.162931"/>
<path d="M19.7539 53.8789C19.1811 54.8112 18.8596 54.8333 18.2869 53.8789" stroke="#413752" stroke-width="0.162931"/>
<path d="M29.6562 57.8881C29.0835 58.8204 28.762 58.8426 28.1892 57.8881" stroke="#413752" stroke-width="0.162931"/>
<path d="M28.7393 58.5564C28.1665 59.4887 27.845 59.5108 27.2722 58.5564" stroke="#413752" stroke-width="0.162931"/>
<path d="M17.9199 62.5657C17.3472 63.4981 17.0256 63.5202 16.4529 62.5657" stroke="#413752" stroke-width="0.162931"/>
<path d="M17.0029 63.234C16.4302 64.1663 16.1087 64.1884 15.5359 63.234" stroke="#413752" stroke-width="0.162931"/>
<path d="M31.6733 67.9115C31.1006 68.8439 30.7791 68.866 30.2063 67.9115" stroke="#413752" stroke-width="0.162931"/>
<path d="M42.8599 67.2433C42.2871 68.1756 41.9656 68.1977 41.3928 67.2433" stroke="#413752" stroke-width="0.162931"/>
<path d="M52.0288 76.5984C51.456 77.5307 51.1345 77.5528 50.5618 76.5984" stroke="#413752" stroke-width="0.162931"/>
<path d="M51.2954 75.9302C50.7226 76.8625 50.4011 76.8846 49.8284 75.9302" stroke="#413752" stroke-width="0.162931"/>
<path d="M47.2607 72.9232C46.688 73.3634 46.3665 73.3738 45.7937 72.9232" stroke="#413752" stroke-width="0.162931"/>
<path d="M46.5273 73.2573C45.9546 74.1896 45.6331 74.2117 45.0603 73.2573" stroke="#413752" stroke-width="0.162931"/>
<path fill-rule="evenodd" clip-rule="evenodd" d="M39.6468 20.0932C39.7411 20.1969 39.834 20.3017 39.9256 20.4074C42.4535 23.3266 43.96 27.0007 43.96 30.9923C43.96 40.4953 35.4213 48.199 24.8884 48.199C14.3555 48.199 5.81684 40.4953 5.81684 30.9923C5.81684 23.4592 11.1823 17.0568 18.6535 14.7261C18.7241 14.704 18.795 14.6824 18.866 14.6611C24.1927 18.1005 30.7791 20.1336 37.9084 20.1336C38.4917 20.1336 39.0713 20.12 39.6468 20.0932Z" fill="#F89987"/>
<ellipse cx="2.93409" cy="2.67289" rx="2.93409" ry="2.67289" transform="matrix(-1 0 0 1 15.3525 31.4934)" fill="#F27C94"/>
<ellipse cx="2.93409" cy="2.67289" rx="2.93409" ry="2.67289" transform="matrix(-1 0 0 1 15.3525 31.4934)" fill="#F27C94"/>
<ellipse cx="7.15183" cy="6.34811" rx="7.15183" ry="6.34811" transform="matrix(-1 0 0 1 38.4585 24.4771)" fill="#FFFDFF"/>
<path d="M8.38432 25.4794C8.38432 28.9854 11.5863 31.8275 15.5362 31.8275C19.486 31.8275 22.688 28.9854 22.688 25.4794C22.688 21.9734 19.486 19.1313 15.5362 19.1313C11.5863 19.1313 8.38432 21.9734 8.38432 25.4794Z" fill="#FFFDFF"/>
<path fill-rule="evenodd" clip-rule="evenodd" d="M31.4641 24.4786C31.4118 24.4776 31.3593 24.4771 31.3068 24.4771C27.3569 24.4771 24.1549 27.3193 24.1549 30.8252C24.1549 31.2482 24.2015 31.6615 24.2904 32.0614C24.98 32.3409 25.7402 32.4958 26.5389 32.4958C29.6785 32.4958 32.2237 30.1024 32.2237 27.15C32.2237 26.1769 31.9472 25.2646 31.4641 24.4786Z" fill="#413752"/>
<path fill-rule="evenodd" clip-rule="evenodd" d="M15.6936 19.1328C15.6413 19.1318 15.5889 19.1313 15.5363 19.1313C11.5865 19.1313 8.38447 21.9734 8.38447 25.4794C8.38447 25.9024 8.43108 26.3157 8.51999 26.7156C9.20958 26.9951 9.96975 27.15 10.7684 27.15C13.908 27.15 16.4532 24.7566 16.4532 21.8042C16.4532 20.8311 16.1767 19.9188 15.6936 19.1328Z" fill="#413752"/>
<ellipse cx="2.93409" cy="2.67289" rx="2.93409" ry="2.67289" transform="matrix(-1 0 0 1 31.1235 36.8392)" fill="#F27C94"/>
<ellipse cx="2.93409" cy="2.67289" rx="2.93409" ry="2.67289" transform="matrix(-1 0 0 1 31.1235 36.8392)" fill="#F27C94"/>
<path d="M40.6592 19.7996C25.9264 19.4986 21.0246 17.0629 17.1865 12.4491C15.7118 14.2529 15.525 14.9869 18.2868 14.9549C17.9086 17.3895 18.8123 17.2089 20.8541 16.2914C20.6802 18.9338 21.4462 19.113 23.7882 17.9619C23.8303 20.1371 24.5436 20.1225 26.3555 19.1313C26.6228 20.8678 27.2445 21.0496 29.2896 19.7996C29.8281 21.8513 30.6613 21.4983 32.4071 20.1337C33.7472 22.3929 34.5642 22.14 36.0747 20.4678C37.1922 22.5826 37.6972 22.3463 38.4586 20.3007C38.4586 20.3007 40.0991 21.1394 40.6592 19.7996Z" fill="#C5AB67"/>
<path d="M27.0887 69.7492C22.3351 69.9733 20.0231 69.8654 17.5529 68.5798M15.7191 48.366C13.0104 51.1582 12.1316 53.6501 10.7678 58.3894C9.7019 66.7533 10.6177 69.386 10.7678 76.0973M40.6985 19.7995C27.7625 19.491 22.2071 17.9751 17.0424 12.282M41.209 14.2867C36.568 8.5356 33.1834 6.55138 25.0715 6.4351M35.5639 49.8695C34.26 50.0016 33.724 50.2753 33.3633 51.373L32.8132 63.401C36.0083 63.932 37.7413 63.9616 40.6985 63.401L41.0653 51.373M10.2574 67.2433C10.1039 67.2932 9.95613 67.3388 9.8137 67.3802M5.67286 66.9092C6.12027 67.3322 6.1555 67.1603 6.58976 67.3802M6.58976 67.3802L6.223 69.9162M6.58976 67.3802C7.06668 67.6217 7.58253 67.7312 8.24019 67.6879M8.24019 67.6879V70.7515M8.24019 67.6879C8.61551 67.6632 9.03702 67.5887 9.52385 67.4606C9.61798 67.4358 9.71455 67.409 9.8137 67.3802M9.8137 67.3802L10.2574 70.4174M4.75596 66.5751C6.53032 66.8335 5.7661 63.9596 6.58976 63.5681" stroke="#413752" stroke-width="0.162931"/>
<path d="M37.2147 73.7585L37.9482 79.9395" stroke="#413752" stroke-width="0.162931"/>
<ellipse cx="1.46704" cy="1.33644" rx="1.46704" ry="1.33644" transform="matrix(-1 0 0 1 46.894 7.77153)" fill="#413752"/>
<ellipse cx="0.733522" cy="0.668222" rx="0.733522" ry="0.668222" transform="matrix(-1 0 0 1 38.0918 14.7879)" fill="#413752"/>
<ellipse cx="0.668257" cy="0.73349" rx="0.668257" ry="0.73349" transform="matrix(-0.0246538 0.999696 0.999791 0.0204617 20.5039 9.09312)" fill="#413752"/>
<path d="M37.5734 17.1151C37.864 17.0838 38.1421 16.9896 38.3845 16.8405C38.6269 16.6913 38.8267 16.4914 38.967 16.2576C39.1074 16.0238 39.1843 15.7627 39.1914 15.4963C39.1984 15.2299 39.1354 14.9658 39.0075 14.726C38.8797 14.4863 38.6907 14.278 38.4564 14.1183C38.2222 13.9587 37.9494 13.8525 37.6608 13.8085C37.3723 13.7645 37.0764 13.784 36.7978 13.8654C36.5192 13.9468 36.2661 14.0878 36.0595 14.2765L36.2957 14.4911C36.4647 14.3367 36.6718 14.2214 36.8997 14.1547C37.1276 14.0881 37.3697 14.0721 37.6058 14.1081C37.8418 14.1441 38.065 14.2311 38.2567 14.3616C38.4483 14.4922 38.6029 14.6627 38.7075 14.8588C38.8121 15.0549 38.8637 15.271 38.8579 15.489C38.8522 15.707 38.7892 15.9205 38.6744 16.1118C38.5596 16.3031 38.3962 16.4666 38.1978 16.5887C37.9995 16.7107 37.772 16.7877 37.5343 16.8133L37.5734 17.1151Z" fill="#413752"/>
<path d="M23.0464 9.61731C23.0185 9.35201 22.9214 9.09662 22.7632 8.87247C22.6049 8.64832 22.3901 8.46192 22.1366 8.32883C21.8831 8.19574 21.5984 8.11983 21.3062 8.10744C21.0139 8.09504 20.7227 8.14652 20.4567 8.25757C20.1908 8.36863 19.9579 8.53604 19.7774 8.74582C19.597 8.9556 19.4742 9.20166 19.4195 9.46346C19.3647 9.72526 19.3795 9.9952 19.4626 10.2507C19.5457 10.5063 19.6947 10.74 19.8972 10.9324L20.1379 10.7221C19.9723 10.5647 19.8504 10.3735 19.7824 10.1644C19.7144 9.95537 19.7023 9.73452 19.7471 9.52034C19.7919 9.30616 19.8923 9.10485 20.0399 8.93322C20.1876 8.76159 20.3781 8.62463 20.5957 8.53378C20.8133 8.44292 21.0516 8.40081 21.2906 8.41095C21.5297 8.42109 21.7627 8.4832 21.9701 8.59208C22.1774 8.70096 22.3532 8.85346 22.4827 9.03684C22.6121 9.22022 22.6916 9.42916 22.7143 9.64621L23.0464 9.61731Z" fill="#413752"/>
<ellipse cx="1.10028" cy="1.33644" rx="1.10028" ry="1.33644" transform="matrix(-1 0 0 1 32.5903 2.09167)" fill="#413752"/>
<path d="M39.415 71.9209C39.5598 70.8349 39.6386 70.2246 39.415 68.9139M37.7646 70.7515C37.893 71.7346 37.8977 72.2203 37.7646 72.9232M35.3806 72.5891C35.7555 71.4046 35.7122 70.7032 35.3806 69.415M32.6299 70.0832C33.162 69.8289 33.3828 69.538 33.5468 68.5797" stroke="#413752" stroke-width="0.162931"/>
<path d="M11.541 12.9503L9.52383 6.60214M4.38918 8.60681L9.15707 14.1196M7.32327 15.7902L0.721575 12.9503" stroke="white" stroke-width="0.162931"/>
<path d="M14.8346 15.7435C13.2772 18.7698 12.381 20.6936 11.0516 21.4796C9.38337 21.9485 7.88677 21.4561 5.29878 20.6872C8.12489 22.086 10.1884 22.8698 9.99532 23.937C9.93916 24.7078 9.32884 27.0795 8.61439 30.2149C10.515 27.5803 11.8451 25.6443 12.5656 24.8538C13.135 23.9324 15.309 24.664 18.1502 25.2713C16.0236 24.3181 14.4722 23.9538 13.6219 22.3964C13.3647 20.4412 14.0854 18.5841 14.8346 15.7435Z" fill="#FFCD4D"/>
<path d="M30.2389 20.7552C28.6815 23.7815 27.7853 25.7053 26.4559 26.4912C24.7877 26.9602 23.2911 26.4677 20.7031 25.6988C23.5292 27.0977 25.5927 27.8815 25.3996 28.9486C25.3435 29.7194 24.7331 32.0912 24.0187 35.2266C25.9193 32.592 27.2494 30.656 27.9699 29.8655C28.5393 28.944 30.7133 29.6756 33.5545 30.283C31.4279 29.3298 29.8765 28.9655 29.0262 27.4081C28.769 25.4529 29.4897 23.5958 30.2389 20.7552Z" fill="#FFCD4D"/>
<path d="M30.9797 24.8112C31.5245 26.1723 31.5001 26.9871 31.1631 28.4864" stroke="#FFFDFF" stroke-width="0.162931"/>
<ellipse cx="1.10028" cy="2.50583" rx="1.10028" ry="2.50583" transform="matrix(-1 0 0 1 20.8936 35.1687)" fill="#413752"/>
<path d="M14.967 19.7996C15.5118 21.1607 15.4874 21.9755 15.1504 23.4748" stroke="#FFFDFF" stroke-width="0.162931"/>
</svg>
