<svg width="59" height="85" viewBox="0 0 59 85" fill="none" xmlns="http://www.w3.org/2000/svg">
<path d="M38.1865 59.4719C42.435 65.8528 46.7309 69.4388 56.3412 75.8433C56.8773 74.126 56.6474 73.501 53.9573 73.8386C54.6499 71.7976 53.9877 71.5491 51.7567 72.001C52.4183 69.3816 51.6072 69.3732 49.3727 70.3305C49.6376 68.4682 49.0437 68.223 47.1722 68.6599C47.7076 66.6703 47.1209 66.5026 45.3384 66.9894C46.3667 65.3726 45.4124 65.413 43.7372 65.4838L43.688 65.4859C44.4795 63.8023 44.1075 63.475 42.2209 63.8153C43.0915 61.4929 42.3651 61.2228 40.2037 61.4765C41.0848 59.4551 40.0313 59.1715 38.1865 59.4719Z" fill="#C5AB67"/>
<path d="M24.9831 69.6622C25.411 73.059 25.3865 80.538 25.5332 80.8053C19.665 86.8193 32.0991 85.7123 38.1865 79.97C57.9968 81.2295 62.7561 79.0487 56.1577 75.6762C45.7122 68.0868 42.4551 65.2981 40.9768 62.9799C40.9768 62.9799 41.4046 53.5746 41.527 51.6202C41.5687 50.9545 41.4629 50.5308 41.3386 50.2808C41.3402 50.2818 41.3419 50.2827 41.3436 50.2837C42.4115 49.8251 42.9858 49.5471 43.6346 48.7306C46.6676 42.5205 47.4576 37.5883 45.6518 23.6723C52.987 8.8044 48.3553 0.515466 41.4341 8.47029C40.0273 6.75674 35.6007 5.1521 35.0157 5.29625C37.3997 2.28923 30.6154 -5.255 28.0473 5.8914C21.7042 5.12766 16.3114 7.80707 17.2278 12.6466C23.9765 18.8562 30.1531 20.6481 41.0673 19.4959L16.8611 44.8884L16.0371 48.112C14.3421 47.4281 11.3335 51.2839 6.50133 62.6458C5.96434 64.4374 9.25446 63.3013 10.8205 63.3941C10.5952 68.3606 10.7419 72.246 11.1763 77.9653C6.76008 82.628 8.25743 83.8178 20.5287 79.6359L21.4989 69.4455C22.465 69.877 23.6411 69.886 24.9831 69.6622Z" fill="#6CC2B2"/>
<path d="M39.8527 71.9029C41.7962 73.3076 41.7392 69.7904 41.1627 63.2686C39.615 63.3465 38.603 64.2341 36.9449 63.6962C35.0108 64.0587 34.3267 63.2932 33.2773 63.2686C32.7246 67.4296 30.9147 71.7405 33.1986 70.0105C33.8895 72.8974 34.3725 73.9791 35.824 72.5987C37.1069 74.0189 37.6254 74.1229 38.137 72.8836C39.1719 73.4731 39.5954 73.3856 39.8527 71.9029Z" fill="#F09E88"/>
<path d="M10.3903 70.177C11.7096 71.7008 10.0092 68.5275 10.9026 62.98L9.03123 62.75L6.60602 62.1275C5.27113 65.5004 2.99762 68.4252 5.25938 67.3943C5.22601 69.9288 5.3997 70.9189 6.89625 70.0292C7.66339 71.4465 8.07239 71.6271 8.75825 70.6853C9.49421 71.3644 9.86445 71.368 10.3903 70.177Z" fill="#F09E88"/>
<path d="M45.5217 39.4251C44.949 40.3574 44.6275 40.3795 44.0547 39.4251" stroke="#413752" stroke-width="0.162931"/>
<path d="M19.115 54.4601C18.5422 55.3924 18.2207 55.4145 17.6479 54.4601" stroke="#413752" stroke-width="0.162931"/>
<path d="M44.6049 40.0933C44.0321 41.0256 43.7106 41.0478 43.1378 40.0933" stroke="#413752" stroke-width="0.162931"/>
<path d="M20.0319 53.7919C19.4591 54.7242 19.1376 54.7463 18.5648 53.7919" stroke="#413752" stroke-width="0.162931"/>
<path d="M29.9344 57.8011C29.3617 58.7335 29.0402 58.7556 28.4674 57.8011" stroke="#413752" stroke-width="0.162931"/>
<path d="M29.0175 58.4694C28.4447 59.4017 28.1232 59.4239 27.5504 58.4694" stroke="#413752" stroke-width="0.162931"/>
<path d="M18.1981 62.4788C17.6254 63.4111 17.3038 63.4332 16.7311 62.4788" stroke="#413752" stroke-width="0.162931"/>
<path d="M17.2811 63.147C16.7084 64.0793 16.3869 64.1014 15.8141 63.147" stroke="#413752" stroke-width="0.162931"/>
<path d="M31.9517 67.8246C31.3789 68.7569 31.0574 68.779 30.4846 67.8246" stroke="#413752" stroke-width="0.162931"/>
<path d="M43.1378 67.1563C42.565 68.0887 42.2435 68.1108 41.6708 67.1563" stroke="#413752" stroke-width="0.162931"/>
<path d="M52.3069 76.5114C51.7341 77.4437 51.4126 77.4658 50.8398 76.5114" stroke="#413752" stroke-width="0.162931"/>
<path d="M51.5732 75.8432C51.0005 76.7756 50.679 76.7977 50.1062 75.8432" stroke="#413752" stroke-width="0.162931"/>
<path d="M47.5389 72.8362C46.9662 73.2764 46.6447 73.2869 46.0719 72.8362" stroke="#413752" stroke-width="0.162931"/>
<path d="M46.8055 73.1703C46.2328 74.1026 45.9113 74.1247 45.3385 73.1703" stroke="#413752" stroke-width="0.162931"/>
<path fill-rule="evenodd" clip-rule="evenodd" d="M39.9249 20.0062C40.0192 20.1099 40.1121 20.2147 40.2037 20.3205C42.7316 23.2396 44.238 26.9137 44.238 30.9053C44.238 40.4083 35.6994 48.112 25.1665 48.112C14.6335 48.112 6.09492 40.4083 6.09492 30.9053C6.09492 23.3722 11.4604 16.9698 18.9315 14.6391C19.0022 14.6171 19.0731 14.5954 19.1441 14.5741C24.4707 18.0135 31.0571 20.0467 38.1865 20.0467C38.7697 20.0467 39.3493 20.0331 39.9249 20.0062Z" fill="#F89987"/>
<ellipse cx="2.93409" cy="2.67289" rx="2.93409" ry="2.67289" transform="matrix(-1 0 0 1 15.6307 31.4064)" fill="#F27C94"/>
<ellipse cx="2.93409" cy="2.67289" rx="2.93409" ry="2.67289" transform="matrix(-1 0 0 1 15.6307 31.4064)" fill="#F27C94"/>
<ellipse cx="7.15183" cy="6.34811" rx="7.15183" ry="6.34811" transform="matrix(-1 0 0 1 38.7366 24.3901)" fill="#FFFDFF"/>
<path d="M8.66228 25.3924C8.66228 28.8984 11.8643 31.7405 15.8141 31.7405C19.764 31.7405 22.9659 28.8984 22.9659 25.3924C22.9659 21.8865 19.764 19.0443 15.8141 19.0443C11.8643 19.0443 8.66228 21.8865 8.66228 25.3924Z" fill="#FFFDFF"/>
<path fill-rule="evenodd" clip-rule="evenodd" d="M31.7421 24.3916C31.6898 24.3906 31.6374 24.3901 31.5848 24.3901C27.635 24.3901 24.433 27.2323 24.433 30.7382C24.433 31.1612 24.4796 31.5745 24.5685 31.9744C25.2581 32.2539 26.0183 32.4088 26.8169 32.4088C29.9566 32.4088 32.5017 30.0154 32.5017 27.063C32.5017 26.0899 32.2253 25.1776 31.7421 24.3916Z" fill="#413752"/>
<path fill-rule="evenodd" clip-rule="evenodd" d="M15.9714 19.0458C15.9191 19.0448 15.8667 19.0443 15.8141 19.0443C11.8643 19.0443 8.6623 21.8865 8.6623 25.3924C8.6623 25.8154 8.70891 26.2288 8.79782 26.6286C9.48741 26.9081 10.2476 27.063 11.0462 27.063C14.1858 27.063 16.731 24.6696 16.731 21.7172C16.731 20.7441 16.4545 19.8318 15.9714 19.0458Z" fill="#413752"/>
<ellipse cx="2.93409" cy="2.67289" rx="2.93409" ry="2.67289" transform="matrix(-1 0 0 1 31.4014 36.7523)" fill="#F27C94"/>
<ellipse cx="2.93409" cy="2.67289" rx="2.93409" ry="2.67289" transform="matrix(-1 0 0 1 31.4014 36.7523)" fill="#F27C94"/>
<path d="M40.9373 19.7126C26.2045 19.4116 21.3026 16.9759 17.4646 12.3621C15.9898 14.1659 15.8031 14.8999 18.5648 14.868C18.1867 17.3025 19.0904 17.1219 21.1322 16.2044C20.9583 18.8468 21.7243 19.026 24.0663 17.875C24.1084 20.0501 24.8217 20.0355 26.6336 19.0443C26.9009 20.7808 27.5226 20.9626 29.5677 19.7126C30.1062 21.7643 30.9394 21.4113 32.6851 20.0467C34.0253 22.3059 34.8422 22.053 36.3527 20.3808C37.4703 22.4956 37.9753 22.2593 38.7367 20.2137C38.7367 20.2137 40.3772 21.0524 40.9373 19.7126Z" fill="#C5AB67"/>
<path d="M27.367 69.6622C22.6134 69.8863 20.3014 69.7784 17.8312 68.4928M15.9974 48.2791C13.2887 51.0712 12.41 53.5631 11.0462 58.3024C9.98022 66.6663 10.896 69.299 11.0462 76.0103M40.9768 19.7126C28.0408 19.404 22.4854 17.8881 17.3208 12.1951M41.4873 14.1997C36.8463 8.44861 33.4618 6.46439 25.3498 6.34811M35.8422 49.7826C34.5384 49.9146 34.0023 50.1883 33.6416 51.2861L33.0915 63.3141C36.2866 63.845 38.0196 63.8747 40.9768 63.3141L41.3436 51.2861M10.5357 67.1563C10.3822 67.2062 10.2344 67.2518 10.092 67.2932M5.95118 66.8222C6.39859 67.2452 6.43382 67.0733 6.86808 67.2932M6.86808 67.2932L6.50132 69.8292M6.86808 67.2932C7.345 67.5347 7.86085 67.6442 8.51851 67.6009M8.51851 67.6009V70.6645M8.51851 67.6009C8.89383 67.5762 9.31534 67.5017 9.80217 67.3736C9.8963 67.3488 9.99287 67.322 10.092 67.2932M10.092 67.2932L10.5357 70.3304M5.03428 66.4881C6.80864 66.7466 6.04442 63.8726 6.86808 63.4811" stroke="#413752" stroke-width="0.162931"/>
<path d="M37.4927 73.6715L38.2262 79.8526" stroke="#413752" stroke-width="0.162931"/>
<ellipse cx="1.46704" cy="1.33644" rx="1.46704" ry="1.33644" transform="matrix(-1 0 0 1 47.1722 7.68454)" fill="#413752"/>
<ellipse cx="0.733522" cy="0.668222" rx="0.733522" ry="0.668222" transform="matrix(-1 0 0 1 38.37 14.7009)" fill="#413752"/>
<ellipse cx="0.668257" cy="0.73349" rx="0.668257" ry="0.73349" transform="matrix(-0.0246538 0.999696 0.999791 0.0204617 20.782 9.00613)" fill="#413752"/>
<path d="M37.8518 17.0281C38.1423 16.9968 38.4204 16.9026 38.6628 16.7535C38.9053 16.6043 39.105 16.4044 39.2454 16.1706C39.3857 15.9368 39.4626 15.6757 39.4697 15.4093C39.4767 15.1429 39.4137 14.8788 39.2858 14.6391C39.158 14.3993 38.969 14.191 38.7348 14.0313C38.5005 13.8717 38.2277 13.7655 37.9391 13.7215C37.6506 13.6775 37.3547 13.697 37.0761 13.7784C36.7976 13.8599 36.5444 14.0008 36.3379 14.1895L36.574 14.4041C36.743 14.2497 36.9501 14.1344 37.178 14.0677C37.4059 14.0011 37.648 13.9851 37.8841 14.0211C38.1201 14.0571 38.3433 14.1441 38.535 14.2747C38.7267 14.4052 38.8812 14.5757 38.9858 14.7718C39.0904 14.968 39.142 15.184 39.1362 15.402C39.1305 15.62 39.0676 15.8335 38.9527 16.0248C38.8379 16.2161 38.6745 16.3796 38.4761 16.5017C38.2778 16.6237 38.0503 16.7008 37.8126 16.7264L37.8518 17.0281Z" fill="#413752"/>
<path d="M23.3244 9.53032C23.2966 9.26502 23.1995 9.00963 23.0413 8.78548C22.883 8.56133 22.6682 8.37493 22.4147 8.24184C22.1612 8.10875 21.8765 8.03284 21.5842 8.02044C21.292 8.00805 21.0007 8.05953 20.7348 8.17058C20.4689 8.28164 20.2359 8.44904 20.0555 8.65883C19.875 8.86861 19.7523 9.11467 19.6976 9.37647C19.6428 9.63827 19.6576 9.90821 19.7407 10.1637C19.8238 10.4193 19.9728 10.653 20.1753 10.8454L20.416 10.6351C20.2504 10.4777 20.1285 10.2865 20.0605 10.0774C19.9925 9.86838 19.9804 9.64753 20.0252 9.43335C20.07 9.21917 20.1704 9.01786 20.318 8.84623C20.4656 8.6746 20.6562 8.53764 20.8738 8.44679C21.0914 8.35593 21.3296 8.31382 21.5687 8.32396C21.8078 8.3341 22.0408 8.3962 22.2481 8.50509C22.4555 8.61397 22.6313 8.76647 22.7607 8.94985C22.8902 9.13323 22.9696 9.34217 22.9924 9.55922L23.3244 9.53032Z" fill="#413752"/>
<ellipse cx="1.10028" cy="1.33644" rx="1.10028" ry="1.33644" transform="matrix(-1 0 0 1 32.8684 2.00468)" fill="#413752"/>
<path d="M39.6932 71.8338C39.838 70.7479 39.9168 70.1376 39.6932 68.8268M38.0428 70.6645C38.1712 71.6476 38.1759 72.1332 38.0428 72.8362M35.6588 72.5021C36.0337 71.3176 35.9904 70.6162 35.6588 69.328M32.9081 69.9962C33.4402 69.7419 33.661 69.451 33.825 68.4927" stroke="#413752" stroke-width="0.162931"/>
<path d="M11.8195 12.8633L9.80227 6.51515M4.66762 8.51982L9.43551 14.0327M7.60171 15.7032L1.00002 12.8633" stroke="white" stroke-width="0.162931"/>
<path d="M15.1129 15.6566C13.5556 18.6828 12.6593 20.6066 11.3299 21.3926C9.66169 21.8615 8.16509 21.3691 5.5771 20.6002C8.40321 21.999 10.4668 22.7828 10.2736 23.85C10.2175 24.6208 9.60716 26.9926 8.89271 30.1279C10.7933 27.4933 12.1234 25.5573 12.8439 24.7668C13.4133 23.8454 15.5873 24.577 18.4285 25.1843C16.3019 24.2312 14.7505 23.8668 13.9002 22.3094C13.643 20.3542 14.3637 18.4971 15.1129 15.6566Z" fill="#FFCD4D"/>
<path d="M30.5169 20.6682C28.9596 23.6945 28.0634 25.6183 26.7339 26.4043C25.0657 26.8732 23.5691 26.3807 20.9812 25.6118C23.8073 27.0107 25.8708 27.7945 25.6777 28.8617C25.6215 29.6324 25.0112 32.0042 24.2968 35.1396C26.1973 32.505 27.5274 30.569 28.248 29.7785C28.8173 28.857 30.9914 29.5886 33.8325 30.196C31.706 29.2428 30.1546 28.8785 29.3042 27.3211C29.0471 25.3659 29.7677 23.5088 30.5169 20.6682Z" fill="#FFCD4D"/>
<path d="M31.2577 24.7242C31.8025 26.0853 31.778 26.9001 31.441 28.3994" stroke="#FFFDFF" stroke-width="0.162931"/>
<ellipse cx="1.10028" cy="2.50583" rx="1.10028" ry="2.50583" transform="matrix(-1 0 0 1 21.1718 35.0817)" fill="#413752"/>
<path d="M15.2453 19.7126C15.7902 21.0737 15.7657 21.8885 15.4287 23.3878" stroke="#FFFDFF" stroke-width="0.162931"/>
</svg>
