<svg width="27" height="27" viewBox="0 0 27 27" fill="none" xmlns="http://www.w3.org/2000/svg">
<path d="M26.0556 13.9553C26.0556 17.4115 24.6826 20.7261 22.2388 23.1699C19.7949 25.6138 16.4803 26.9867 13.0242 26.9867C9.56803 26.9867 6.25344 25.6138 3.80958 23.1699C1.36571 20.7261 -0.00723267 17.4115 -0.00723267 13.9553C-0.00723267 10.4992 1.36571 7.18459 3.80958 4.74073C6.25344 2.29687 9.56803 0.92392 13.0242 0.92392C16.4803 0.92392 19.7949 2.29687 22.2388 4.74073C24.6826 7.18459 26.0556 10.4992 26.0556 13.9553ZM11.0532 9.22004C10.9314 9.13333 10.7881 9.08181 10.639 9.07113C10.4899 9.06045 10.3407 9.09102 10.2078 9.15948C10.0749 9.22795 9.96338 9.33168 9.88552 9.4593C9.80765 9.58692 9.76641 9.73351 9.76632 9.88301V18.0276C9.76641 18.1771 9.80765 18.3237 9.88552 18.4513C9.96338 18.579 10.0749 18.6827 10.2078 18.7512C10.3407 18.8196 10.4899 18.8502 10.639 18.8395C10.7881 18.8288 10.9314 18.7773 11.0532 18.6906L16.7544 14.6183C16.86 14.543 16.946 14.4435 17.0054 14.3282C17.0648 14.2129 17.0958 14.085 17.0958 13.9553C17.0958 13.8256 17.0648 13.6978 17.0054 13.5825C16.946 13.4672 16.86 13.3677 16.7544 13.2923L11.0532 9.22004Z" fill="white"/>
</svg>
