<svg width="32" height="31" viewBox="0 0 32 31" fill="none" xmlns="http://www.w3.org/2000/svg">
<path d="M15.402 19.7596C15.2696 19.3164 14.9259 18.9961 14.5122 18.9247L10.7313 18.2791L9.02905 14.2357C8.66152 13.3627 7.3774 13.3627 7.00988 14.2357L5.30764 18.2791L1.52672 18.9247C1.11307 18.9944 0.769346 19.3164 0.636917 19.7596C0.504488 20.2028 0.605669 20.6908 0.897311 21.0244L3.66493 24.1897L3.01022 28.6745C2.94178 29.1442 3.12033 29.6173 3.46852 29.8928C3.81819 30.1683 4.27797 30.1966 4.65145 29.9642L8.0202 27.8877L11.389 29.9642C11.5571 30.0687 11.7431 30.1202 11.9276 30.1202C12.1538 30.1202 12.3785 30.0439 12.5704 29.8928C12.9186 29.6173 13.0971 29.1442 13.0287 28.6745L12.374 24.1897L15.1416 21.0244C15.4347 20.6908 15.5344 20.2028 15.402 19.7596ZM10.3831 22.9016C10.1346 23.1838 5.90283 24.5339 5.95937 24.924L10.456 26.5466L8.55885 25.3764C8.3922 25.2719 8.2062 25.2204 8.0202 25.2204C7.78363 17.924 1.52672 31.424 7.48007 25.3764L5.58292 26.5466L5.95937 23.9722C6.01591 23.5822 12.2773 21.3049 12.0288 21.0211H4.01162L10.9671 28.424C11.3347 28.3609 8.0202 19.9405 5.9645 19.924L9.02905 26.0317L8.96506 19.9405C8.0202 20.2899 7.11255 26.8625 7.48007 26.924L12.0288 21.0211L10.3831 22.9016Z" fill="#FFCD4D"/>
<path d="M31.5267 17.6943C31.4053 17.2914 31.0902 17.0002 30.711 16.9353L27.2452 16.3483L25.6848 12.6726C25.3479 11.8789 24.1708 11.8789 23.8339 12.6726L22.2735 16.3483L18.8077 16.9353C18.4285 16.9987 18.1134 17.2914 17.992 17.6943C17.8706 18.0972 17.9634 18.5408 18.2307 18.8441L20.7677 21.7216L20.1675 25.7988C20.1048 26.2258 20.2685 26.6558 20.5876 26.9063C20.9095 27.1568 21.3296 27.1824 21.672 26.9712L24.76 25.0835L27.848 26.9712C28.0022 27.0663 28.1727 27.113 28.3418 27.113C28.5491 27.113 28.7551 27.0436 28.931 26.9063C29.2502 26.6558 29.4139 26.2258 29.3511 25.7988L28.751 21.7216L31.288 18.8441C31.5567 18.5408 31.6481 18.0972 31.5267 17.6943ZM26.926 20.5507C26.6982 20.8072 26.5959 21.1694 26.6478 21.524L25.9749 21.924L25.2538 22.8005C25.0996 22.707 24.9292 22.6587 24.7587 22.6587C24.5882 22.6587 24.4177 22.7055 24.2635 22.8005L22.5245 23.8643L22.8696 21.524C22.9214 21.1694 22.8191 20.8087 22.5913 20.5507L21.0841 18.8411L21.427 22.6587C25.6444 29.0871 33.2779 17.0798 26.6478 17.0798L24.76 15.8187L25.6261 17.8588C25.7707 18.1998 26.0599 18.4397 26.3968 18.4956L28.4346 18.8411L26.926 20.5507Z" fill="#FFCD4D"/>
<path d="M20.9491 3.93447L18.1131 3.46493L16.8363 0.524525C16.5607 -0.110389 15.5975 -0.110389 15.3218 0.524525L14.045 3.46493L11.2102 3.93447C10.8999 3.98638 10.6421 4.22055 10.5427 4.54162C10.4434 4.86391 10.5182 5.21879 10.7369 5.46261L12.8129 7.76448L12.3218 11.026C12.2704 11.3676 12.4044 11.7116 12.6655 11.9119C12.9289 12.1111 13.2727 12.1328 13.5528 11.9638L16.0796 10.4526L18.6064 11.9626C18.7326 12.0387 18.8721 12.0761 19.0105 12.0761C19.1801 12.0761 19.3486 12.0206 19.4926 11.9107C19.7538 11.7104 19.8877 11.3663 19.8364 11.0247L19.3453 7.76327L21.4212 5.4614C21.64 5.21878 21.7159 4.8627 21.6165 4.54162C21.5172 4.22055 21.2594 3.98638 20.9491 3.93447ZM17.852 6.82659C17.6656 7.03179 17.5819 7.32149 17.6243 7.60514L17.9067 9.4773L16.4837 8.62632C16.3587 8.55027 16.2191 8.51285 16.0796 8.51285C15.9401 8.51285 15.8006 8.55027 15.6745 8.62632L14.2515 9.4773L18.2437 9.92395C18.2861 9.64029 20.9647 4.02131 17.852 4.42395L13.0729 5.45899L14.7403 5.18257C15.016 5.1367 17.3341 6.42395 15.3709 4.67319V6.0495L16.7883 4.67319C16.9066 4.94599 17.1433 5.13791 17.4189 5.18257L19.0864 5.45899L17.852 6.82659Z" fill="#FFCD4D"/>
</svg>
