<svg width="31" height="31" viewBox="0 0 31 31" fill="none" xmlns="http://www.w3.org/2000/svg">
<path d="M14.8224 19.7113C14.69 19.2681 14.3463 18.9478 13.9326 18.8764L10.1517 18.2307L8.44945 14.1874C8.08192 13.3143 6.79781 13.3143 6.43028 14.1874L4.72805 18.2307L0.94713 18.8764C0.533476 18.9461 0.189756 19.2681 0.0573267 19.7113C-0.0751022 20.1544 0.0260795 20.6424 0.317721 20.9761L3.08534 24.1413L2.43063 28.6262C2.36218 29.0959 2.54074 29.5689 2.88892 29.8445C3.2386 30.12 3.69838 30.1482 4.07186 29.9158L7.44061 27.8394L10.8094 29.9158C10.9775 30.0204 11.1635 30.0719 11.348 30.0719C11.5742 30.0719 11.7989 29.9955 11.9908 29.8445C12.339 29.5689 12.5175 29.0959 12.4491 28.6262L11.7944 24.1413L14.562 20.9761C14.8551 20.6424 14.9548 20.1544 14.8224 19.7113ZM9.8035 22.8533C9.55501 23.1355 5.32323 24.4856 5.37978 24.8756L9.87641 26.4983L7.97925 25.3281C7.8126 25.2235 7.6266 25.1721 7.44061 25.1721C7.20404 17.8756 0.94713 31.3756 6.90048 25.3281L5.00332 26.4983L5.37978 23.9239C5.43632 23.5338 11.6977 21.2566 11.4492 20.9727H3.43203L10.3875 28.3756C10.7551 28.3125 7.44061 19.8922 5.3849 19.8756L8.44945 25.9833L8.38547 19.8922C7.44061 20.2415 6.53295 26.8142 6.90048 26.8756L11.4492 20.9727L9.8035 22.8533Z" fill="#667080" fill-opacity="0.5"/>
<path d="M30.9471 17.6459C30.8257 17.2431 30.5106 16.9518 30.1314 16.887L26.6656 16.3L25.1052 12.6242C24.7683 11.8305 23.5912 11.8305 23.2543 12.6242L21.6939 16.3L18.2281 16.887C17.8489 16.9503 17.5338 17.2431 17.4124 17.6459C17.291 18.0488 17.3838 18.4924 17.6511 18.7957L20.1881 21.6733L19.5879 25.7504C19.5252 26.1774 19.6889 26.6075 20.008 26.8579C20.3299 27.1084 20.75 27.1341 21.0924 26.9228L24.1804 25.0352L27.2684 26.9228C27.4226 27.0179 27.5931 27.0647 27.7622 27.0647C27.9695 27.0647 28.1755 26.9953 28.3514 26.8579C28.6706 26.6075 28.8343 26.1774 28.7715 25.7504L28.1714 21.6733L30.7084 18.7957C30.9771 18.4924 31.0685 18.0488 30.9471 17.6459ZM26.3464 20.5023C26.1186 20.7589 26.0163 21.121 26.0682 21.4756L25.3953 21.8756L24.6742 22.7521C24.52 22.6586 24.3496 22.6103 24.1791 22.6103C24.0086 22.6103 23.8381 22.6571 23.6839 22.7521L21.9449 23.8159L22.29 21.4756C22.3418 21.121 22.2395 20.7604 22.0117 20.5023L20.5045 18.7927L20.8474 22.6103C25.0648 29.0387 32.6983 17.0314 26.0682 17.0314L24.1804 15.7703L25.0465 17.8104C25.1911 18.1514 25.4803 18.3913 25.8172 18.4472L27.855 18.7927L26.3464 20.5023Z" fill="#667080" fill-opacity="0.5"/>
<path d="M20.3695 3.88613L17.5335 3.41659L16.2567 0.476186C15.9811 -0.158729 15.0179 -0.158729 14.7422 0.476186L13.4654 3.41659L10.6306 3.88613C10.3203 3.93804 10.0625 4.17221 9.96315 4.49328C9.86382 4.81557 9.9386 5.17045 10.1573 5.41427L12.2333 7.71614L11.7422 10.9776C11.6908 11.3192 11.8248 11.6632 12.0859 11.8636C12.3493 12.0628 12.6931 12.0845 12.9732 11.9155L15.5 10.4043L18.0268 11.9143C18.153 11.9903 18.2925 12.0278 18.4309 12.0278C18.6005 12.0278 18.769 11.9722 18.913 11.8624C19.1742 11.662 19.3081 11.318 19.2568 10.9764L18.7657 7.71493L20.8416 5.41306C21.0604 5.17044 21.1363 4.81436 21.0369 4.49328C20.9376 4.17221 20.6798 3.93804 20.3695 3.88613ZM17.2724 6.77825C17.086 6.98345 17.0023 7.27315 17.0447 7.5568L17.3271 9.42896L15.9041 8.57798C15.7791 8.50193 15.6395 8.46451 15.5 8.46451C15.3605 8.46451 15.221 8.50193 15.0949 8.57798L13.6719 9.42896L17.6641 9.87561C17.7065 9.59195 20.3851 3.97297 17.2724 4.37561L12.4933 5.41065L14.1607 5.13423C14.4364 5.08836 16.7545 6.37561 14.7913 4.62485V6.00116L16.2087 4.62485C16.3271 4.89765 16.5637 5.08957 16.8393 5.13423L18.5068 5.41065L17.2724 6.77825Z" fill="#667080" fill-opacity="0.5"/>
</svg>
