<svg width="87" height="87" viewBox="0 0 87 87" fill="none" xmlns="http://www.w3.org/2000/svg">
<path d="M43.4637 7.25001C23.4537 7.25001 7.25 23.49 7.25 43.5C7.25 63.51 23.4537 79.75 43.4637 79.75C63.51 79.75 79.75 63.51 79.75 43.5C79.75 23.49 63.51 7.25001 43.4637 7.25001ZM55.1725 63.0388L43.5 56.0063L31.8275 63.0388C30.45 63.8725 28.7462 62.64 29.1087 61.0813L32.19 47.8138L21.9313 38.9325C20.735 37.8813 21.3875 35.8875 22.9825 35.7425L36.54 34.5825L41.8325 22.0763C42.4487 20.59 44.5513 20.59 45.1675 22.0763L50.46 34.5463L64.0175 35.7063C65.6125 35.8513 66.265 37.845 65.0325 38.8963L54.7737 47.7775L57.855 61.0813C58.2175 62.64 56.55 63.8725 55.1725 63.0388V63.0388Z" fill="#FAA9ED"/>
</svg>
