<svg width="22" height="22" viewBox="0 0 22 22" fill="none" xmlns="http://www.w3.org/2000/svg">
<path fill-rule="evenodd" clip-rule="evenodd" d="M2.16908 2.16908C1.7412 2.59696 1.5 3.41007 1.5 5.19V11.53C1.5 13.3103 1.74134 14.1227 2.16858 14.5492C2.5956 14.9754 3.40785 15.215 5.18789 15.21L5.19 15.21L16.31 15.21C18.0914 15.21 18.9039 14.9709 19.3314 14.5442C19.7585 14.1178 20 13.3056 20 11.52V5.19C20 3.41 19.7588 2.59736 19.3302 2.16958C18.9011 1.74129 18.0853 1.5 16.3 1.5H5.19C3.41007 1.5 2.59696 1.7412 2.16908 2.16908ZM1.10842 1.10842C2.01304 0.203799 3.41993 0 5.19 0H16.3C18.0747 0 19.4839 0.203713 20.3898 1.10792C21.2962 2.01264 21.5 3.42 21.5 5.19V11.52C21.5 13.2944 21.2965 14.7022 20.3911 15.6058C19.4861 16.5091 18.0786 16.71 16.31 16.71H5.19109C3.42161 16.7149 2.01422 16.5144 1.10892 15.6108C0.203661 14.7073 0 13.2997 0 11.53V5.19C0 3.41993 0.203799 2.01304 1.10842 1.10842Z" fill="#413752"/>
<path fill-rule="evenodd" clip-rule="evenodd" d="M10.75 15.22C11.1642 15.22 11.5 15.5558 11.5 15.97V20.75C11.5 21.1642 11.1642 21.5 10.75 21.5C10.3358 21.5 10 21.1642 10 20.75V15.97C10 15.5558 10.3358 15.22 10.75 15.22Z" fill="#413752"/>
<path fill-rule="evenodd" clip-rule="evenodd" d="M0 11.75C0 11.3358 0.335786 11 0.75 11H20.75C21.1642 11 21.5 11.3358 21.5 11.75C21.5 12.1642 21.1642 12.5 20.75 12.5H0.75C0.335786 12.5 0 12.1642 0 11.75Z" fill="#413752"/>
<path fill-rule="evenodd" clip-rule="evenodd" d="M5.5 20.75C5.5 20.3358 5.83579 20 6.25 20H15.25C15.6642 20 16 20.3358 16 20.75C16 21.1642 15.6642 21.5 15.25 21.5H6.25C5.83579 21.5 5.5 21.1642 5.5 20.75Z" fill="#413752"/>
</svg>
