<svg width="87" height="87" viewBox="0 0 87 87" fill="none" xmlns="http://www.w3.org/2000/svg">
<path d="M43.5 7.25002C23.49 7.25002 7.25 23.49 7.25 43.5C7.25 63.51 23.49 79.75 43.5 79.75C63.51 79.75 79.75 63.51 79.75 43.5C79.75 23.49 63.51 7.25002 43.5 7.25002ZM39.875 72.2463C25.5563 70.47 14.5 58.29 14.5 43.5C14.5 41.2525 14.79 39.1138 15.2613 37.0113L32.625 54.375V58C32.625 61.9875 35.8875 65.25 39.875 65.25V72.2463ZM64.8875 63.0388C63.945 60.1025 61.2625 58 58 58H54.375V47.125C54.375 45.1313 52.7438 43.5 50.75 43.5H29V36.25H36.25C38.2438 36.25 39.875 34.6188 39.875 32.625V25.375H47.125C51.1125 25.375 54.375 22.1125 54.375 18.125V16.6388C64.9963 20.9525 72.5 31.3563 72.5 43.5C72.5 51.04 69.6 57.8913 64.8875 63.0388Z" fill="#93C6FF"/>
</svg>
